HIERARCHY
ROOT Hips
{
    OFFSET   0.000000   0.000000   0.000000
    CHANNELS 6 Xposition Yposition Zposition Zrotation Xrotation Yrotation
    JOINT Chest
    {
        OFFSET   0.000000   8.007230   0.000000
        CHANNELS 3 Zrotation Xrotation Yrotation
        JOINT Chest2
        {
            OFFSET   0.000000  22.077100   0.000000
            CHANNELS 3 Zrotation Xrotation Yrotation
            JOINT Neck
            {
                OFFSET   0.000000  23.255100   0.000000
                CHANNELS 3 Zrotation Xrotation Yrotation
                JOINT Head
                {
                    OFFSET   0.000000  14.370100   1.956600
                    CHANNELS 3 Zrotation Xrotation Yrotation
                    End Site
                    {
                        OFFSET   0.000000  19.566000   0.000000
                    }
                }
            }
            JOINT LeftCollar
            {
                OFFSET   3.911900  19.017000  -0.467063
                CHANNELS 3 Zrotation Xrotation Yrotation
                JOINT LeftShoulder
                {
                    OFFSET  10.383700   0.000000   0.000000
                    CHANNELS 3 Zrotation Xrotation Yrotation
                    JOINT LeftElbow
                    {
                        OFFSET  26.662100   0.001193   0.000980
                        CHANNELS 3 Zrotation Xrotation Yrotation
                        JOINT LeftWrist
                        {
                            OFFSET  28.869000  -0.000059  -0.000082
                            CHANNELS 3 Zrotation Xrotation Yrotation
                            JOINT LeftFinger0
                            {
                                OFFSET   2.044650  -2.323450   3.252850
                                CHANNELS 3 Zrotation Xrotation Yrotation
                                JOINT LeftFinger01
                                {
                                    OFFSET   3.088130   0.000000   0.000000
                                    CHANNELS 3 Zrotation Xrotation Yrotation
                                    JOINT LeftFinger02
                                    {
                                        OFFSET   2.639460   0.000000   0.000000
                                        CHANNELS 3 Zrotation Xrotation Yrotation
                                        End Site
                                        {
                                            OFFSET   2.582190   0.000000   0.000000
                                        }
                                    }
                                }
                            }
                            JOINT LeftFinger1
                            {
                                OFFSET   8.364480   0.000000   3.252850
                                CHANNELS 3 Zrotation Xrotation Yrotation
                                JOINT LeftFinger11
                                {
                                    OFFSET   4.646930   0.000000   0.000000
                                    CHANNELS 3 Zrotation Xrotation Yrotation
                                    JOINT LeftFinger12
                                    {
                                        OFFSET   2.323470   0.000000   0.000000
                                        CHANNELS 3 Zrotation Xrotation Yrotation
                                        End Site
                                        {
                                            OFFSET   2.273050   0.000000   0.000000
                                        }
                                    }
                                }
                            }
                            JOINT LeftFinger2
                            {
                                OFFSET   8.364490   0.000016   1.078090
                                CHANNELS 3 Zrotation Xrotation Yrotation
                                JOINT LeftFinger21
                                {
                                    OFFSET   5.111610   0.000000   0.000000
                                    CHANNELS 3 Zrotation Xrotation Yrotation
                                    JOINT LeftFinger22
                                    {
                                        OFFSET   2.788150   0.000016   0.000000
                                        CHANNELS 3 Zrotation Xrotation Yrotation
                                        End Site
                                        {
                                            OFFSET   2.727660   0.000000   0.000000
                                        }
                                    }
                                }
                            }
                            JOINT LeftFinger3
                            {
                                OFFSET   7.899780   0.000015  -1.078090
                                CHANNELS 3 Zrotation Xrotation Yrotation
                                JOINT LeftFinger31
                                {
                                    OFFSET   4.646930   0.000000   0.000000
                                    CHANNELS 3 Zrotation Xrotation Yrotation
                                    JOINT LeftFinger32
                                    {
                                        OFFSET   2.323470   0.000000   0.000000
                                        CHANNELS 3 Zrotation Xrotation Yrotation
                                        End Site
                                        {
                                            OFFSET   2.273050   0.000000   0.000000
                                        }
                                    }
                                }
                            }
                            JOINT LeftFinger4
                            {
                                OFFSET   7.435090   0.000000  -3.252850
                                CHANNELS 3 Zrotation Xrotation Yrotation
                                JOINT LeftFinger41
                                {
                                    OFFSET   3.717550   0.000000   0.000000
                                    CHANNELS 3 Zrotation Xrotation Yrotation
                                    JOINT LeftFinger42
                                    {
                                        OFFSET   1.858770   0.000000   0.000000
                                        CHANNELS 3 Zrotation Xrotation Yrotation
                                        End Site
                                        {
                                            OFFSET   1.818440   0.000000   0.000000
                                        }
                                    }
                                }
                            }
                        }
                    }
                }
            }
            JOINT RightCollar
            {
                OFFSET  -3.911910  19.017000  -0.467062
                CHANNELS 3 Zrotation Xrotation Yrotation
                JOINT RightShoulder
                {
                    OFFSET -10.383700   0.000014   0.000000
                    CHANNELS 3 Zrotation Xrotation Yrotation
                    JOINT RightElbow
                    {
                        OFFSET -26.662100   0.001225   0.001091
                        CHANNELS 3 Zrotation Xrotation Yrotation
                        JOINT RightWrist
                        {
                            OFFSET -28.869000  -0.000020  -0.000085
                            CHANNELS 3 Zrotation Xrotation Yrotation
                            JOINT RightFinger0
                            {
                                OFFSET  -2.044650  -2.323490   3.252850
                                CHANNELS 3 Zrotation Xrotation Yrotation
                                JOINT RightFinger01
                                {
                                    OFFSET  -3.088130   0.000000   0.000000
                                    CHANNELS 3 Zrotation Xrotation Yrotation
                                    JOINT RightFinger02
                                    {
                                        OFFSET  -2.639460   0.000000   0.000000
                                        CHANNELS 3 Zrotation Xrotation Yrotation
                                        End Site
                                        {
                                            OFFSET  -2.582190   0.000000   0.000000
                                        }
                                    }
                                }
                            }
                            JOINT RightFinger1
                            {
                                OFFSET  -8.364480   0.000000   3.252850
                                CHANNELS 3 Zrotation Xrotation Yrotation
                                JOINT RightFinger11
                                {
                                    OFFSET  -4.646930   0.000000   0.000000
                                    CHANNELS 3 Zrotation Xrotation Yrotation
                                    JOINT RightFinger12
                                    {
                                        OFFSET  -2.323470   0.000000   0.000000
                                        CHANNELS 3 Zrotation Xrotation Yrotation
                                        End Site
                                        {
                                            OFFSET  -2.273050   0.000000   0.000000
                                        }
                                    }
                                }
                            }
                            JOINT RightFinger2
                            {
                                OFFSET  -8.364480   0.000000   1.078090
                                CHANNELS 3 Zrotation Xrotation Yrotation
                                JOINT RightFinger21
                                {
                                    OFFSET  -5.111620   0.000000   0.000000
                                    CHANNELS 3 Zrotation Xrotation Yrotation
                                    JOINT RightFinger22
                                    {
                                        OFFSET  -2.788160   0.000000   0.000000
                                        CHANNELS 3 Zrotation Xrotation Yrotation
                                        End Site
                                        {
                                            OFFSET  -2.727660   0.000000   0.000000
                                        }
                                    }
                                }
                            }
                            JOINT RightFinger3
                            {
                                OFFSET  -7.899780   0.000000  -1.078090
                                CHANNELS 3 Zrotation Xrotation Yrotation
                                JOINT RightFinger31
                                {
                                    OFFSET  -4.646930   0.000000   0.000000
                                    CHANNELS 3 Zrotation Xrotation Yrotation
                                    JOINT RightFinger32
                                    {
                                        OFFSET  -2.323470   0.000000   0.000000
                                        CHANNELS 3 Zrotation Xrotation Yrotation
                                        End Site
                                        {
                                            OFFSET  -2.273050   0.000000   0.000000
                                        }
                                    }
                                }
                            }
                            JOINT RightFinger4
                            {
                                OFFSET  -7.435090   0.000000  -3.252850
                                CHANNELS 3 Zrotation Xrotation Yrotation
                                JOINT RightFinger41
                                {
                                    OFFSET  -3.717550   0.000000   0.000000
                                    CHANNELS 3 Zrotation Xrotation Yrotation
                                    JOINT RightFinger42
                                    {
                                        OFFSET  -1.858760   0.000000   0.000000
                                        CHANNELS 3 Zrotation Xrotation Yrotation
                                        End Site
                                        {
                                            OFFSET  -1.818440   0.000000   0.000000
                                        }
                                    }
                                }
                            }
                        }
                    }
                }
            }
        }
    }
    JOINT LeftHip
    {
        OFFSET   9.783030   0.000000   0.000000
        CHANNELS 3 Zrotation Xrotation Yrotation
        JOINT LeftKnee
        {
            OFFSET   0.000063 -41.789100   0.000608
            CHANNELS 3 Zrotation Xrotation Yrotation
            JOINT LeftAnkle
            {
                OFFSET   0.000048 -41.133200  -0.000184
                CHANNELS 3 Zrotation Xrotation Yrotation
                JOINT LeftToe
                {
                    OFFSET   0.000000  -6.358960  14.674500
                    CHANNELS 3 Zrotation Xrotation Yrotation
                    End Site
                    {
                        OFFSET   0.000000   0.000000   3.913200
                    }
                }
            }
        }
    }
    JOINT RightHip
    {
        OFFSET  -9.783030   0.000000   0.000000
        CHANNELS 3 Zrotation Xrotation Yrotation
        JOINT RightKnee
        {
            OFFSET   0.000071 -41.789100   0.001239
            CHANNELS 3 Zrotation Xrotation Yrotation
            JOINT RightAnkle
            {
                OFFSET   0.000037 -41.133200  -0.000166
                CHANNELS 3 Zrotation Xrotation Yrotation
                JOINT RightToe
                {
                    OFFSET   0.000000  -6.358960  14.674500
                    CHANNELS 3 Zrotation Xrotation Yrotation
                    End Site
                    {
                        OFFSET   0.000000   0.000000   3.913200
                    }
                }
            }
        }
    }
}
MOTION
Frames: 6
Frame Time:   0.016667
 -0.030069  89.865200   1.739200  -0.564827  -3.762740  -2.665610   0.370377   4.254030  -1.143840   0.829547   8.499670  -2.324960   1.334030  -0.395032   0.000689   2.194870  -0.800123  10.094600  -8.402600  -3.495840   8.409650 -68.631800  20.374500  -1.773230  -4.299060  -8.692240 -14.065700  16.801800   0.790414   9.513940  44.615500  37.215500 -77.773500 -23.024900   0.002613   0.001165  -6.520420   0.005948  -0.004446 -29.821900   6.611120 -11.356800 -24.938200   0.001559  -0.002663 -17.464200   0.000779  -0.001710 -28.381400   3.638790  -6.702340 -37.198500  -0.013231  -0.001828 -24.780500   0.000501   0.000299 -26.904800   3.292780  -6.460600 -27.335200  -0.007897  -0.006565 -18.205200  -0.004785  -0.003599 -27.616100   1.611340  -3.086310 -41.477900  -0.011203   0.002079 -27.632000  -0.002771  -0.007264  10.843700   1.644490  11.726800  66.125500   9.945900  -0.859092   3.809370  -8.968420  10.744300 -19.697900 -15.450500   4.421050 -43.153200  29.903100  59.138600  22.794800   0.000000  -0.000345   6.397380  -0.001598   0.010126  31.911700   2.017960   3.236380  26.156200  -0.007274   0.007335  18.302500  -0.001595   0.010055  28.133000  -1.200780  -2.244530  33.073800   0.000091   0.000281  22.027200  -0.011578   0.000137  28.370700  -2.968770  -5.470020  36.356800  -0.002182   0.000374  24.213600  -0.008221   0.002760  41.284300  -5.210360  -5.904950  62.329800   0.001719   0.002722  41.511700   0.002922   0.004128   0.270263   3.558010   3.323300   1.204600   2.691230  12.486500  -5.447340  -3.872650   4.133230   0.000000   0.000000   0.000000   3.359030   2.433640  -5.436820  -1.653480   4.302720  -5.354550  -9.678770  -1.215370   3.272490   0.000000   0.000000   0.000000
 -0.024906  89.865200   1.724780  -0.569835  -3.780990  -2.657040   0.369829   4.270800  -1.148840   0.829240   8.533210  -2.335380   1.334020  -0.366035   0.000723   2.192230  -0.741165  10.103200  -8.397420  -3.488850   8.418740 -68.603300  20.410200  -1.798710  -4.304450  -8.713020 -14.066500  16.800000   0.775440   9.510700  44.616300  37.219700 -77.788400 -23.027500   0.002618   0.001152  -6.520390   0.005944  -0.004448 -29.823700   6.619820 -11.370300 -24.940600   0.001556  -0.002662 -17.463100   0.000780  -0.001715 -28.379400   3.646950  -6.717550 -37.194700  -0.013242  -0.001830 -24.774800   0.000500   0.000301 -26.902100   3.304090  -6.482740 -27.334800  -0.007887  -0.006564 -18.204900  -0.004788  -0.003598 -27.611200   1.611390  -3.086560 -41.476200  -0.011200   0.002083 -27.627000  -0.002771  -0.007268  10.843800   1.644470  11.726100  66.112600   9.948040  -0.848532   3.809160  -8.968070  10.745400 -19.701900 -15.459500   4.400700 -43.148500  29.902700  59.139300  22.812400   0.000000  -0.000348   6.407290  -0.001587   0.010135  31.912500   2.014200   3.230110  26.156600  -0.007280   0.007334  18.305600  -0.001595   0.010052  28.132800  -1.203350  -2.249450  33.064100   0.000097   0.000278  22.020800  -0.011577   0.000131  28.371100  -2.965960  -5.467930  36.353600  -0.002170   0.000368  24.211400  -0.008227   0.002749  41.281600  -5.219760  -5.916060  62.327200   0.001718   0.002717  41.509900   0.002922   0.004131   0.274086   3.461270   3.323280   1.211490   2.796050  12.482200  -5.446860  -3.861980   4.129460  -0.000000   0.000000  -0.000000   3.359920   2.435460  -5.436850  -1.657120   4.321140  -5.364070  -9.671990  -1.218010   3.276420  -0.000000   0.000000   0.000000
 -0.016562  89.865200   1.701410  -0.577462  -3.811640  -2.643710   0.367563   4.298600  -1.155130   0.825738   8.588830  -2.347910   1.334010  -0.314158   0.000777   2.188410  -0.635908  10.111700  -8.386720  -3.477200   8.427790 -68.555700  20.463600  -1.840540  -4.312480  -8.744020 -14.067700  16.796300   0.760481   9.500390  44.617100  37.223800 -77.803300 -23.030100   0.002622   0.001140  -6.520330   0.005939  -0.004450 -29.823500   6.633130 -11.392700 -24.943000   0.001553  -0.002661 -17.460100   0.000781  -0.001728 -28.376000   3.660710  -6.743180 -37.190900  -0.013266  -0.001832 -24.769100   0.000498   0.000303 -26.897700   3.322400  -6.518600 -27.334400  -0.007860  -0.006564 -18.204700  -0.004795  -0.003597 -27.606200   1.611460  -3.086800 -41.474500  -0.011192   0.002090 -27.622000  -0.002772  -0.007279  10.843900   1.644480  11.721200  66.093400   9.959230  -0.829704   3.808940  -8.967710  10.746500 -19.702700 -15.471800   4.371990 -43.131700  29.900300  59.143800  22.834400  -0.000000  -0.000351   6.417230  -0.001575   0.010145  31.915700   2.010440   3.223850  26.159100  -0.007296   0.007331  18.311400  -0.001594   0.010045  28.132600  -1.205910  -2.254370  33.054500   0.000114   0.000265  22.014300  -0.011574   0.000116  28.372300  -2.959470  -5.459840  36.350300  -0.002137   0.000352  24.209300  -0.008239   0.002718  41.278900  -5.229160  -5.927170  62.324700   0.001715   0.002701  41.508200   0.002921   0.004137   0.277910   3.364530   3.323270   1.218470   2.900900  12.476400  -5.445820  -3.843960   4.123300  -0.000000   0.000000   0.000000   3.361060   2.439930  -5.436890  -1.661930   4.349810  -5.379760  -9.661780  -1.223350   3.283300   0.000000   0.000000   0.000000
 -0.010558  89.865100   1.684190  -0.582057  -3.836710  -2.634780   0.362943   4.320380  -1.156640   0.817003   8.632480  -2.350500   1.332620  -0.265349   0.000818   2.187530  -0.537399  10.106700  -8.373400  -3.467300   8.421310 -68.517900  20.493000  -1.872320  -4.318100  -8.760230 -14.077200  16.791900   0.763206   9.479390  44.624200  37.222500 -77.799000 -23.023100   0.002621   0.001141  -6.520250   0.005946  -0.004447 -29.811600   6.642740 -11.414400 -24.935500   0.001556  -0.002664 -17.453900   0.000780  -0.001748 -28.372500   3.674980  -6.769660 -37.191100  -0.013303  -0.001831 -24.769300   0.000498   0.000304 -26.894000   3.338770  -6.551350 -27.335400  -0.007818  -0.006564 -18.205400  -0.004809  -0.003598 -27.606500   1.611490  -3.085320 -41.474900  -0.011183   0.002100 -27.622300  -0.002773  -0.007297  10.844400   1.644730  11.707600  66.083500   9.985620  -0.810419   3.812760  -8.990410  10.732300 -19.688900 -15.475800   4.358930 -43.114100  29.891400  59.174600  22.839600   0.000027  -0.000348   6.417250  -0.001594   0.010137  31.927100   2.021260   3.239990  26.168900  -0.007319   0.007324  18.318800  -0.001592   0.010037  28.133200  -1.199840  -2.242920  33.061800   0.000140   0.000238  22.019200  -0.011569   0.000093  28.374100  -2.950290  -5.443010  36.361600  -0.002086   0.000322  24.216800  -0.008256   0.002670  41.289700  -5.223660  -5.918900  62.340300   0.001711   0.002674  41.518700   0.002916   0.004145   0.280368   3.546700   3.323790   1.208510   2.732180  12.473500  -5.444640  -3.828520   4.118390  -0.000000   0.000000   0.000000   3.358810   2.448060  -5.436880  -1.663060   4.367010  -5.392500  -9.655880  -1.230480   3.291140  -0.000000   0.000000  -0.000000
 -0.004619  89.865100   1.667600  -0.585812  -3.861910  -2.627470   0.356806   4.342200  -1.156880   0.805240   8.676240  -2.351100   1.329700  -0.211997   0.000849   2.185680  -0.429682  10.097600  -8.358340  -3.458580   8.411670 -68.479200  20.517300  -1.904010  -4.324520  -8.772920 -14.097300  16.789700   0.765934   9.457320  44.630600  37.218800 -77.786300 -23.016100   0.002621   0.001151  -6.520180   0.005952  -0.004443 -29.801600   6.648020 -11.427300 -24.928000   0.001559  -0.002667 -17.449600   0.000778  -0.001774 -28.370400   3.683650  -6.785720 -37.192600  -0.013348  -0.001830 -24.770300   0.000499   0.000305 -26.892000   3.348780  -6.570380 -27.342000  -0.007763  -0.006564 -18.209800  -0.004826  -0.003599 -27.608500   1.611510  -3.081950 -41.477700  -0.011172   0.002113 -27.624100  -0.002774  -0.007321  10.845000   1.645000  11.692200  66.074600  10.018400  -0.792941   3.821010  -9.024500  10.715900 -19.666900 -15.476500   4.354210 -43.107200  29.884500  59.216600  22.840300   0.000072  -0.000346   6.417260  -0.001623   0.010122  31.935400   2.038190   3.265750  26.176500  -0.007349   0.007313  18.323500  -0.001590   0.010024  28.134000  -1.189410  -2.223320  33.069100   0.000174   0.000203  22.024000  -0.011562   0.000064  28.376300  -2.939300  -5.422000  36.372900  -0.002022   0.000285  24.224300  -0.008277   0.002608  41.301500  -5.213890  -5.905340  62.356000   0.001705   0.002638  41.529100   0.002907   0.004156   0.282868   3.728860   3.323650   1.198520   2.563460  12.470600  -5.442840  -3.813740   4.114180   0.000000   0.000000   0.000000   3.353710   2.454770  -5.436590  -1.662940   4.384650  -5.403930  -9.651350  -1.236960   3.296040  -0.000000   0.000000   0.000000
  0.002013  89.865100   1.651060  -0.588979  -3.886100  -2.623160   0.349492   4.364350  -1.156850   0.791047   8.720640  -2.350830   1.326410  -0.155156   0.000861   2.179970  -0.314375  10.086200  -8.343090  -3.453650   8.405330 -68.438400  20.539300  -1.935620  -4.330240  -8.783440 -14.124800  16.793400   0.758985   9.442210  44.620100  37.210900 -77.757400 -23.017000   0.002625   0.001176  -6.520160   0.005950  -0.004452 -29.805700   6.648280 -11.424100 -24.931200   0.001558  -0.002663 -17.451800   0.000776  -0.001805 -28.371100   3.680590  -6.781360 -37.219300  -0.013403  -0.001830 -24.788100   0.000499   0.000307 -26.895600   3.349220  -6.569970 -27.359400  -0.007695  -0.006562 -18.221400  -0.004844  -0.003597 -27.619700   1.610960  -3.076900 -41.494300  -0.011160   0.002128 -27.635200  -0.002775  -0.007348  10.846300   1.640970  11.681300  66.064200  10.049800  -0.783535   3.831100  -9.044320  10.713600 -19.639100 -15.470000   4.360730 -43.112600  29.892500  59.247800  22.834200   0.000104  -0.000347   6.417000  -0.001634   0.010105  31.932100   2.049980   3.284890  26.174500  -0.007386   0.007301  18.322100  -0.001588   0.010007  28.134900  -1.179300  -2.204350  33.062600   0.000216   0.000169  22.019700  -0.011553   0.000025  28.378500  -2.927160  -5.399640  36.365800  -0.001948   0.000242  24.219600  -0.008301   0.002537  41.301900  -5.203540  -5.892460  62.354400   0.001697   0.002595  41.528100   0.002900   0.004171   0.282927   3.559960   3.322090   1.209740   2.747890  12.465600  -5.439860  -3.801380   4.111650   0.000000   0.000000  -0.000000   3.346200   2.455610  -5.430810  -1.661690   4.409810  -5.411230  -9.647710  -1.239370   3.295660   0.000000   0.000000  -0.000000
